<?xml version="1.0" encoding="utf-8"?>
<!-- Generator: Adobe Illustrator 22.1.0, SVG Export Plug-In . SVG Version: 6.00 Build 0)  -->
<svg version="1.1" id="_x2014_ÎÓÈ_x5F_1" xmlns="http://www.w3.org/2000/svg" xmlns:xlink="http://www.w3.org/1999/xlink"
	 x="0px" y="0px" width="628px" height="524px" viewBox="0 0 628 524" style="enable-background:new 0 0 628 524;"
	 xml:space="preserve">
<style type="text/css">
	.st0{fill:#FFFFFF;}
	.st1{fill:#5DC4C4;}
	.st2{fill:#1D8B8B;}
	.st3{fill:#FFCF5D;}
	.st4{fill:#006769;}
	.st5{fill:url(#SVGID_1_);}
	.st6{fill:#F8A537;}
	.st7{fill:#1D2D56;}
	.st8{fill:#FED77B;}
	.st9{fill:#F8B08D;}
	.st10{fill:#F59C85;}
	.st11{fill:#00405F;}
	.st12{fill:url(#SVGID_2_);}
	.st13{fill:#88CEC4;}
	.st14{fill:url(#SVGID_3_);}
	.st15{fill:url(#SVGID_4_);}
</style>
<rect x="0" class="st0" width="628" height="524"/>
<g>
	<path class="st1" d="M494.5,106.8c-1.2-1.5-8.3-3.1-16.5-3.2c-1.8-6.8-4.6-13.2-8.2-19.1c5.2-4.9,10.3-10.5,9.7-14
		c-1.2-7.1-16.5-19.2-19.5-19.5c-1.9-0.2-8.3,3.9-14.3,9.7c-5.8-3.5-12.2-6.2-19-8c0.3-7.2-0.2-14.8-3-16.8
		c-5.8-4.2-25.2-1.9-27.6,0c-1.5,1.2-3.1,8.3-3.2,16.4c-7,1.6-13.6,4.2-19.6,7.7c-4.7-5-10.1-9.7-13.5-9.1
		c-7.1,1.2-19.2,16.5-19.5,19.5c-0.2,1.8,3.3,7.4,8.5,13c-3.9,6.1-7,12.9-8.9,20.2c-6.5-0.1-12.8,0.5-14.7,3.1
		c-4.2,5.8-1.9,25.2,0,27.6c1,1.4,6.9,2.8,14,3.1c1.7,7.6,4.6,14.8,8.5,21.3c-4.4,4.3-8,8.9-7.5,11.9c1.2,7.1,16.5,19.2,19.5,19.5
		c1.7,0.2,6.6-2.8,11.7-7.4c6.5,4,13.7,7,21.4,8.8c0,6.1,0.7,11.9,3.1,13.6c5.8,4.2,25.2,1.9,27.6,0c1.4-1.1,2.8-6.9,3.1-14
		c7.4-1.9,14.4-5,20.7-9c4.5,4.6,9.3,8.6,12.5,8.1c7.1-1.2,19.2-16.5,19.5-19.5c0.2-1.8-3.3-7.5-8.6-13.1c3.6-6.2,6.2-12.9,7.8-20.1
		c6.9,0.2,13.9-0.3,15.8-3.1C498.7,128.6,496.4,109.2,494.5,106.8z M408.9,153.9c-17.7,0-32-14.3-32-32c0-17.7,14.3-32,32-32
		c17.7,0,32,14.3,32,32C440.9,139.6,426.6,153.9,408.9,153.9z"/>
	<g>
		<path class="st0" d="M409.2,166.7c-25.1,0-45.5-20.4-45.5-45.5c0-25.1,20.4-45.5,45.5-45.5c25.1,0,45.5,20.4,45.5,45.5
			C454.7,146.3,434.3,166.7,409.2,166.7z M409.2,76.4c-24.7,0-44.9,20.1-44.9,44.9c0,24.7,20.1,44.9,44.9,44.9
			c24.7,0,44.9-20.1,44.9-44.9C454,96.5,433.9,76.4,409.2,76.4z"/>
	</g>
	<g>
		<path class="st0" d="M473.7,108.1c-0.3,0-0.6-0.1-0.9-0.1c1,4.6,1.6,9.3,1.6,14.1c0,36-29.3,65.2-65.2,65.2
			c-23.6,0-44.2-12.5-55.7-31.3c0,0,0,0,0,0c-0.3,0.1-0.6,0.1-0.9,0.2c11.6,19.2,32.6,32,56.6,32c36.4,0,66.1-29.6,66.1-66.1
			C475.3,117.3,474.7,112.6,473.7,108.1z"/>
		<path class="st0" d="M369.3,70.5c11-8.6,24.9-13.7,39.9-13.7c0.3,0,0.6,0,0.9,0c-0.1-0.3-0.2-0.6-0.3-0.9c-0.2,0-0.4,0-0.6,0
			c-15.1,0-29.1,5.1-40.3,13.7C369,70,369.2,70.3,369.3,70.5z"/>
	</g>
</g>
<g>
	<path class="st2" d="M541.1,231.7c-0.8-1-5.6-2.1-11.1-2.2c-1.2-4.6-3.1-8.9-5.5-12.8c3.5-3.3,6.9-7,6.5-9.4
		c-0.8-4.7-11.1-12.8-13.1-13.1c-1.3-0.2-5.5,2.6-9.6,6.5c-3.9-2.4-8.2-4.2-12.7-5.3c0.2-4.8-0.1-9.9-2-11.3
		c-3.9-2.8-16.9-1.2-18.5,0c-1,0.8-2.1,5.5-2.2,11c-4.7,1.1-9.1,2.8-13.1,5.2c-3.2-3.4-6.8-6.5-9-6.1c-4.7,0.8-12.8,11.1-13.1,13.1
		c-0.2,1.2,2.2,5,5.7,8.7c-2.6,4.1-4.7,8.7-6,13.5c-4.3-0.1-8.6,0.3-9.8,2.1c-2.8,3.9-1.2,16.9,0,18.5c0.7,0.9,4.6,1.8,9.4,2.1
		c1.1,5.1,3.1,9.9,5.7,14.3c-2.9,2.9-5.3,6-5,8c0.8,4.7,11.1,12.8,13.1,13.1c1.1,0.1,4.4-1.9,7.9-4.9c4.4,2.7,9.2,4.7,14.3,5.9
		c0,4.1,0.4,8,2.1,9.1c3.9,2.8,16.9,1.2,18.5,0c0.9-0.7,1.8-4.6,2.1-9.4c5-1.3,9.6-3.3,13.9-6c3,3.1,6.3,5.8,8.4,5.4
		c4.7-0.8,12.8-11.1,13.1-13.1c0.2-1.2-2.2-5-5.7-8.8c2.4-4.1,4.2-8.7,5.2-13.5c4.6,0.1,9.3-0.2,10.6-2.1
		C543.9,246.3,542.3,233.3,541.1,231.7z M483.8,263.2c-11.8,0-21.4-9.6-21.4-21.4c0-11.8,9.6-21.4,21.4-21.4
		c11.8,0,21.4,9.6,21.4,21.4C505.2,253.7,495.6,263.2,483.8,263.2z"/>
	<g>
		<path class="st0" d="M483.9,271.8c-16.8,0-30.5-13.7-30.5-30.5c0-16.8,13.7-30.5,30.5-30.5c16.8,0,30.5,13.7,30.5,30.5
			C514.4,258.2,500.7,271.8,483.9,271.8z M483.9,211.3c-16.6,0-30,13.5-30,30c0,16.6,13.5,30,30,30c16.6,0,30-13.5,30-30
			C514,224.8,500.5,211.3,483.9,211.3z"/>
	</g>
	<g>
		<path class="st0" d="M527.2,232.5c-0.2,0-0.4,0-0.6-0.1c0.7,3,1,6.2,1,9.5c0,24.1-19.6,43.7-43.7,43.7c-15.8,0-29.6-8.4-37.3-21
			c0,0,0,0,0,0c-0.2,0-0.4,0.1-0.6,0.1c7.8,12.8,21.8,21.4,37.9,21.4c24.4,0,44.3-19.9,44.3-44.3
			C528.2,238.7,527.8,235.6,527.2,232.5z"/>
		<path class="st0" d="M457.2,207.4c7.4-5.7,16.7-9.2,26.7-9.2c0.2,0,0.4,0,0.6,0c-0.1-0.2-0.1-0.4-0.2-0.6c-0.1,0-0.3,0-0.4,0
			c-10.1,0-19.5,3.4-27,9.2C457.1,207,457.1,207.2,457.2,207.4z"/>
	</g>
</g>
<g>
	<g>
		<path class="st3" d="M297.8,172.4c0,0,45.6-75.3,7-126.9C198,75.4,227.7,180.3,227.7,180.3L297.8,172.4z"/>
		<path class="st0" d="M304.9,45.4c-0.4,0.1-0.7,0.2-1.1,0.3l-29.9,99.3l-34.4-54.7c-0.4,0.6-0.8,1.2-1.1,1.8l34.8,55.4l-8.6,28.7
			l2.1-0.2l17.2-57.1v0l35.9-11c0.1-0.7,0.2-1.4,0.2-2.1l-35.4,10.8l21.1-70.2C305.3,46.1,305.1,45.8,304.9,45.4L304.9,45.4z"/>
	</g>
	<g>
		<path class="st2" d="M281.2,166.8c0,0-5.2-101.1-70.3-127.5c-57,47.6-13.6,119.3-13.6,119.3l61.9,45.4L281.2,166.8z"/>
		<path class="st4" d="M260.1,87l-25.2,29.6l-22.5-76.8c-0.5-0.2-0.9-0.4-1.4-0.5c-0.2,0.2-0.4,0.4-0.7,0.6L222.3,81l-32.8-15.3
			c-0.2,0.3-0.3,0.6-0.4,0.9l-0.4,0.8l34.3,16l20.1,68.6l-58.4-25c0.2,0.8,0.4,1.6,0.6,2.4l58.5,25l14.3,48.7l1,0.8l0.7-1.8
			l-24.4-83.2l25.6-30C260.7,88.2,260.4,87.6,260.1,87z"/>
	</g>
	<g>
		<path class="st1" d="M261.9,183.3c0,0-60.5-58.2-106.3-40c-17.7,98.9,106.8,128.4,106.8,128.4L261.9,183.3z"/>
		<g>
			<linearGradient id="SVGID_1_" gradientUnits="userSpaceOnUse" x1="155.4061" y1="191.3203" x2="258.5484" y2="191.3203">
				<stop  offset="0" style="stop-color:#B2E1E9"/>
				<stop  offset="1" style="stop-color:#D6EDE5"/>
			</linearGradient>
			<path class="st5" d="M155.6,143.3c-0.1,0.4-0.1,0.8-0.2,1.1l72.9,67.3l-53.4,8.1c0.5,0.6,1,1.2,1.5,1.7l53.8-8.2l28.5,26.3
				l-0.4-3l-55.4-51.2l-1.8-41c-0.7-0.2-1.3-0.5-2-0.7l1.8,39.9l-44.1-40.8C156.3,143,155.9,143.1,155.6,143.3L155.6,143.3z"/>
		</g>
	</g>
</g>
<g>
	<g>
		<g>
			<path class="st6" d="M450,277c0,0-154.7,24.5-231.9,3.3c-13.6-52.5,0-158.4,0-158.4H450V277z"/>
		</g>
		<path class="st7" d="M452.5,122.6H216.8c-2.3,0-4.1-1.9-4.1-4.1l0,0c0-2.3,1.9-4.1,4.1-4.1h235.6c2.3,0,4.1,1.9,4.1,4.1l0,0
			C456.6,120.7,454.7,122.6,452.5,122.6z"/>
	</g>
	<g>
		<g>
			<g>
				<polygon class="st8" points="412.9,256.9 247.1,256.9 247.1,142.6 249.7,142.6 249.7,254.2 412.9,254.2 				"/>
			</g>
		</g>
	</g>
</g>
<g>
	<g>
		<polygon class="st9" points="233.5,216 235.8,227 247.4,223.8 239.9,208 		"/>
		<g>
			<path class="st9" d="M230.6,219.1c-1.3,0.4-2.6,0.6-3.4,0.3c-5.6-4.4-6-20.8-6-20.8l5.3-4.5l9.3,2.4l3.7,9.9
				c1,2.7,0.5,5.6-1.3,8.1l0,0C236.1,216.6,233.5,218.2,230.6,219.1z"/>
		</g>
		<path class="st7" d="M236.4,202.5c-1-1.6-2-5.5-3.6-4.7c-1.2,0.6-5.4,2.2-6.9,2.6c-3.5,1.1-10,1.7-11.7-3.5
			c-0.8-2.6,1-5.7,2.4-6.9c1.4-1.2,3.2-1.7,5-1.7c4.2,0.1,10.2,1.4,12.1,0.4c3.2-1.8,7.2-0.9,8,2c0.9,3.1,0.8,8.2,0.2,11.6
			c-0.3,2-1,3.9-2,5.6l0,0L236.4,202.5z"/>
		<path class="st9" d="M240,201.8c-1-0.4-2.4,0.2-3.1,1.3c-0.7,1.2-0.5,2.5,0.4,2.9c1,0.4,2.4-0.2,3.1-1.3
			C241.2,203.5,241,202.2,240,201.8z"/>
	</g>
	<path class="st2" d="M242.4,221.4c21.6-1.2,23.4,18,25.2,38.8c2.1,23.9,0.5,50,0.5,50h-50.2c0,0,0-22.2,0.5-44.5
		C218.9,244.2,219.6,222.7,242.4,221.4z"/>
	<path class="st10" d="M220.6,299.3c0,0-4.9-3.4-6.8-2.6c-1.8,0.8-0.4,4.2-0.4,4.2L220.6,299.3z"/>
	<path class="st9" d="M255.9,262.9l2.3,15.9L219.8,298l4.2,4.2c0,0,43.2-7.8,49.3-13.5c6.1-5.7,1.9-28.5,1.9-28.5L255.9,262.9z"/>
	<path class="st10" d="M212.9,288c-8.8-3.1-3.4-33.4-3.4-33.4l5.2,0C214.6,254.6,221.6,291.1,212.9,288z"/>
	<path class="st9" d="M226.3,301.3l-9.1,5.8c-3.6,1.7-6.9-0.9-9.5-4.6c-1.6-2.3,0-5.4,2.8-5.4c3.3,0,7.2,0.7,9.2,0.8L226.3,301.3z"
		/>
	<path class="st2" d="M208,254.7l6.1,3.7c0,0,25.9-41.9,13.1-30.9C213.9,239,208,254.7,208,254.7z"/>
	<g>
		<path class="st7" d="M238.5,450.8c0,0,0,6-12.1,9.6c-2.5,0.7-1.7,1.5-2.1,2.5c4,0,13.9,0,13.9,0l5.4-6.1l1.7,1.5l3.9-3.9
			c0,0-1.8-5.6-4.8-5.6C242,449.7,238.5,450.8,238.5,450.8z"/>
		<path class="st9" d="M236.3,445.6l2.3,5.2l0,0c2.1,0.6,4.3-0.1,5.6-1.7l0.2-0.3l-1.8-5.4L236.3,445.6z"/>
	</g>
	<path class="st2" d="M275.1,260.2c0,0-8.2-38.3-27.7-37.4c-19.5,0.9,8.5,40.2,8.5,40.2L275.1,260.2z"/>
	<path class="st9" d="M213,288.7c-12.2-9.9,11.8-61.3,11.8-61.3l5.8,0.6C230.5,227.9,230.1,296.2,213,288.7z"/>
	<polygon class="st4" points="233.5,223.3 234.3,219.5 244.2,217.5 247.4,221.5 	"/>
	<path class="st9" d="M224.7,227.3l-0.7-9.8c0,0,4.9-7.5,9.5-5.5c0.9,2.1-0.6,6.2-0.6,6.2l-2.4,9.7L224.7,227.3z"/>
	<path class="st7" d="M217.9,310.3c0,0-7,43.9-5.3,64.1c1.6,20.3,23.9,73.3,23.9,73.3l9.7-2.8c0,0,0.7-35.5-8.8-58.7
		c-2.1-5.1-2-10.8,0-16c7.8-20.2,10.8-33.6,10.8-33.6l-0.7-26.3H217.9z"/>
	<g>
		<path class="st10" d="M225.3,226.9l-0.2,0l-0.7-9.3c0.7-0.9,4.8-6.7,8.7-5.3c0.5,1.6-0.3,4.6-0.7,5.7l0,0.1c0.3-0.1,0.7-0.1,1-0.2
			c0.3-1,1.3-4.3,0.5-6.2l-0.1-0.2l-0.2-0.1c-4.9-2.1-9.9,5.3-10.1,5.7l-0.1,0.1l0.8,10.4l0.6,0.1
			C225,227.5,225.2,227.2,225.3,226.9z"/>
	</g>
	<g>
		<path class="st7" d="M257.4,454c0,0-4.3,4-14.2,6.5c-2.2,0.6-4.5-0.2-4.5,3.4c4.6,0,12,0,12,0l10-1.7v1.7h5.4c0,0,1.5-8.8-1.6-9.9
			C261.4,454,257.4,454,257.4,454z"/>
		<path class="st9" d="M258.4,447.7l-1.1,6.3l0,0c2,1.4,4.5,1.4,6.6,0.2l0.4-0.2l-0.5-6.3H258.4z"/>
	</g>
	<path class="st11" d="M232.7,310.3l23.3,139.3h9.3c0,0,8-37.5,1.8-67.8c-1.1-5.3-1.2-10.7-0.4-16c5.9-39.1,1.4-55.5,1.4-55.5H232.7
		z"/>
</g>
<g>
	<polygon class="st4" points="376.1,463.5 384.9,378.8 381.8,378.1 373,463.5 	"/>
</g>
<path class="st1" d="M438.9,369.6c0,0,26.2-60.1,8.1-77.5c-10.8-10.3-30.8-8.8-45.3-5.9c-10,2-17.3,10.8-17.3,21v61.6L438.9,369.6z"
	/>
<path class="st4" d="M382.4,293.2c4-5.2,9.5-9.1,15.8-10.9c4.3-1.2,9.8-2.2,16.6-2.2c0.6,0,1.1,0,1.6,0c13,0.4,23.5,8.2,29.2,19.8
	l3.5,9.6l-15.2,4.9l-3.3-7.3l2.5,36H391l0.4-41.4l-14.7,0.3L382.4,293.2z"/>
<path class="st9" d="M448.5,309.7c0,0,6.4,12.5,3.3,16.9c-3.1,4.4-44.5-4.9-44.5-4.9v-5.4l31.3,2.1l-3.9-4.1L448.5,309.7z"/>
<path class="st9" d="M373,314.2c0,0-10.1,6.5-10.1,11.5c0,5,18.5,1.2,18.5,1.2L373,314.2z"/>
<g>
	<path class="st10" d="M407.6,276.2l-0.8,5.8c0,0-0.3,3,5,3c2.2,0,3.6-0.5,4.5-1.1c1-0.7,1.6-1.9,1.4-3.2l-1.7-12.5L407.6,276.2z"/>
	<path class="st9" d="M406.2,276.8c-1.5,0.3-3,0.3-3.8-0.2c-5.8-6-4.7-25.6-4.7-25.6l16.3-0.4l3.1,12.4c0.8,3.3,0,6.8-2.1,9.4l0,0
		C412.5,274.6,409.5,276.2,406.2,276.8z"/>
	<path class="st7" d="M393.5,247.9c2.1-2.4,5.5-2.9,7.1-1.9c1.2,0.7,5.3-6.1,13.4-5.6c5.6,0.3,13,9,3.9,26.1
		c-0.6-1.9-4.7-12.4-7.6-10.5c-2.7,2.3-5.7,3.3-8.1,3.7c-3.1,0.5-7.5-1.2-9.4-3.8C391.2,253.9,390.4,251.5,393.5,247.9z"/>
	<path class="st9" d="M417,257.8c-1-0.7-2.6-0.2-3.6,1.1c-0.9,1.3-0.8,2.8,0.2,3.5c1,0.7,2.6,0.2,3.6-1.1
		C418.2,260,418.1,258.4,417,257.8z"/>
	<path class="st7" d="M415.3,238.4c0,0,1.8-3.6,8.2-2.2c11.4,3.1,10,16.7,8.8,23.7c-0.6,3.7,0.3,7.5,2.6,10.4
		c5.6,7.2,14,21,2.9,28.9c-2.1,1.5-4.8,2.1-7.3,1.5c-2.4-0.6-4-2.2-4.9-3.8c-1.3-2.2-1.5-4.8-0.8-7.2c0.5-1.8,1-4.4,0.3-5.6
		c-1.2-2.2-8.2-6.4-8.6-13c-0.5-6.6,3.7-9.1,4.7-16c1.8-12.2-0.9-13.7-0.9-13.7L415.3,238.4z"/>
	<polygon class="st3" points="419.4,243.4 414,240.5 415.3,238.4 420.4,241.4 	"/>
</g>
<g>
	<polygon class="st4" points="444.9,465.8 447.9,465.2 438.9,378.1 435.9,378.8 	"/>
</g>
<path class="st3" d="M439.5,379.4h-57.7l0,0c0-3.9,2.1-7.2,5.1-8.1c10.5-3.2,31.8-9.9,46.8-7.7c5,0.7,8.4,6.9,7,12.9
	C440.2,378.5,439.5,379.4,439.5,379.4z"/>
<g>
	<path class="st2" d="M330.7,458.7l-13.9-10.1c-2-1.1-4.6-1.9-6.5,0c0,0-1.3,1.2-2.3,2.7c-0.1,1.1,19,13.6,19,13.6l0.1,0
		C331.4,463.1,330.7,458.7,330.7,458.7z"/>
	<polygon class="st1" points="308,451.3 327,464.9 326.1,465.8 307.4,452.1 	"/>
	<g>
		<polygon class="st0" points="325.2,454.7 323.9,453.8 322.7,456.3 323.9,457.2 		"/>
	</g>
	<g>
		<polygon class="st0" points="322.5,452.7 321.2,451.8 320,454.4 321.2,455.3 		"/>
	</g>
	<path class="st9" d="M336.2,452.2l-5.6,6.5l0,0c-1.7-0.1-3.1-1.1-3.8-2.6l-0.1-0.3l1.4-4.1L336.2,452.2z"/>
</g>
<path class="st7" d="M410.4,369.2c0,0-16.5,24.2-41.1,35.2c-6.4,15-35,50.5-35,50.5l-6-3.3l52-89.8L410.4,369.2z"/>
<g>
	<path class="st2" d="M387,457.7l-17.2,0c-2.3,0.3-4.8,1.2-5.3,3.8c0,0-0.3,1.8-0.2,3.5c0.6,1,23.4-0.1,23.4-0.1l0.1-0.1
		C390.2,460.8,387,457.7,387,457.7z"/>
	<polygon class="st1" points="364.3,464.9 387.7,464.8 387.5,466 364.3,466 	"/>
	<g>
		<polygon class="st0" points="380.2,457.6 378.7,457.6 379.1,460.5 380.6,460.5 		"/>
	</g>
	<g>
		<polygon class="st0" points="376.9,457.6 375.3,457.6 375.8,460.5 377.3,460.5 		"/>
	</g>
	<path class="st9" d="M387.7,449.2l-0.7,8.5l0,0c-1.4,0.9-3.2,1-4.6,0.1l-0.3-0.2l-1.5-7.6L387.7,449.2z"/>
</g>
<path class="st11" d="M433.2,343.2v7.2c0,11.3-8.1,21-19.2,23c-10,1.8-23.3,1.9-38.3-3.6c14.2,24.5,12.4,81.9,12.4,81.9h-6.8
	l-30.2-91.9c-3.2-8.3,3-17.2,11.9-17.2L433.2,343.2z"/>
<g>
	<linearGradient id="SVGID_2_" gradientUnits="userSpaceOnUse" x1="396.239" y1="326.0901" x2="429.0355" y2="326.0901">
		<stop  offset="0" style="stop-color:#B2E1E9"/>
		<stop  offset="1" style="stop-color:#D6EDE5"/>
	</linearGradient>
	<rect x="415.1" y="324.5" class="st12" width="13.9" height="3.1"/>
</g>
<g>
	<polygon class="st11" points="234.6,274.7 237.7,277.9 234.4,297 231.3,298.8 	"/>
	<path class="st10" d="M101.3,298.9c0,0,14.6,28.9,23.4,30.6c8.9,1.7,49.3-13,49.3-13v-5.8l-40.4,1l-9.6-19.8L101.3,298.9z"/>
	<path class="st7" d="M117,263.7c-47.9,2.4-42.4,83.8-42.4,83.8h51.3C125.9,347.5,134.9,317.7,117,263.7z"/>
	<g>
		<path class="st7" d="M118.4,455.6c0,0,0,6.4,13,10.3c2.7,0.8,1.8,1.6,2.3,2.7c-4.3,0-14.9,0-14.9,0l-5.8-6.6l-1.8,1.6l-4.2-4.1
			c0,0,2-6,5.2-6C114.8,454.4,118.4,455.6,118.4,455.6z"/>
		<path class="st9" d="M121.9,447.7l-3.4,7.9l0,0c-2.2,0.6-4.6-0.1-6.1-1.8l-0.3-0.3l2-5.7H121.9z"/>
	</g>
	<g>
		<path class="st10" d="M108.2,250.6l-1.6,15.1c0,0,2.1,4,6.7,4.5c4.6,0.5,5-2.8,5-2.8l1.1-9.8l-6.6-2.5L108.2,250.6z"/>
		<path class="st9" d="M119.6,260.5c1.4,0.1,2.8,0,3.5-0.5c4.8-6.1,2-24.1,2-24.1l-15.1,1.1l-1.7,11.7c-0.5,3.1,0.6,6.3,2.8,8.5l0,0
			C113.6,259.1,116.5,260.3,119.6,260.5z"/>
		<path class="st7" d="M117,238c0,0,4.8,1.5,10.1,1.1c5.3-0.4,2.6-6.4,2.6-6.4s-4,1.3-10.7-0.4c-4.5-1.2-5.7-2.2-8.8-0.9
			c-4.2,1.7-4,9-4,9l0.6,15.6l0.8,1.1c0,0,1.2-10.1,1.5-13.2c1-1.3,2-1.2,2.6-0.8c0.7,0.5,1.1,1.4,1,2.2l-1.7,15.9
			c0,0,9.7,5.5,12.3,4.9c2.7-0.5,2.2-12.5,2.2-12.5s-2.8-1.6-5.4,0.7c-2.6,2.3-5-0.6-5-0.6L117,238z"/>
		<path class="st9" d="M110.4,242.5c1.1,0,2.1,1.2,2.2,2.7c0.1,1.5-0.8,2.6-2,2.6c-1.1,0-2.1-1.2-2.2-2.7
			C108.4,243.6,109.2,242.4,110.4,242.5z"/>
	</g>
	<path class="st7" d="M125.9,347.5c0,0,23.9,13.4,35.9,29.6c3,4.1,3.2,9.7,0.2,13.9c-17.3,24.9-40.2,57.9-40.2,57.9h-9
		c0,0,11.8-43,26.2-68.3C140.4,371.2,125.9,347.5,125.9,347.5z"/>
	<path class="st10" d="M174,310.7l7.2,1.2l6.8,7.3c0,0-3.3,1.6-8.3-3.5c-9.8-0.7-7.1-2.5-7.1-2.5L174,310.7z"/>
	<path class="st9" d="M93.6,307.4c0,0,14.6,28.9,23.4,30.6c8.9,1.7,47.7-17.3,47.7-17.3l1.6-6.2l-40.4,5.8l-9.6-19.8L93.6,307.4z"/>
	<g>
		<path class="st7" d="M181.9,459.1c0,0,4.2,3.9,13.6,6.3c2.1,0.5,4.3-0.2,4.3,3.3c-4.4,0-11.5,0-11.5,0l-9.6-1.7v1.7h-5.2
			c0,0-1.4-8.4,1.6-9.5C178,459.1,181.9,459.1,181.9,459.1z"/>
		<path class="st9" d="M180.8,453l1,6.1l0,0c-1.9,1.3-4.4,1.4-6.3,0.2l-0.4-0.2l-1.5-6.1H180.8z"/>
	</g>
	<path class="st9" d="M181.6,317.6c0.1-0.7-0.3-1.3-1-1.5l-6.1-2.4c-1.5-0.6-3.2-0.6-4.7,0l-6,1.2l-0.6,1.1l-0.4,5.5
		c1.2-0.5,1.8-0.8,1.8-0.8l3.8-0.5c0,0,8.3,5.6,10.9-0.8c1.1,6.2,2.9,5.4,2.9,5.4L181.6,317.6z"/>
	<path class="st11" d="M74.6,347.5c0,0-7.5,31.4,61.4,42.2c4.8,0.8,8.6,4.3,9.8,9c5.9,23.3,27.7,56.8,27.7,56.8h8.9l-14.4-63.7
		c-1-4.6-3.4-8.7-6.9-11.9l-35.1-32.4H74.6z"/>
	<g>
		<g>
			<polygon class="st4" points="117.6,471 106,386.6 103.9,386.9 115.4,471 			"/>
		</g>
		<g>
			<g>
				<path class="st1" d="M120.8,386.8H70.1c0,0,0-3.6,0-10c17.8-8.2,50.8,5,50.8,5V386.8z"/>
				<g>
					<path class="st4" d="M70.1,385.7v-2.1c-0.3,0-7.1-0.2-7.1-11.4c0-12.1,7.6-30.5,7.6-30.6l-2-0.8c-0.3,0.8-7.8,18.9-7.8,31.5
						C60.8,385.6,70,385.7,70.1,385.7z"/>
				</g>
				<path class="st3" d="M81.8,344.1c-12.5-2.9-14-1.3-14-1.3s3.8-14.7,0.2-23.6c15.3-8.8,18.1,1.7,18.1,1.7S88.7,329.8,81.8,344.1z
					"/>
			</g>
			<g>
				<polygon class="st4" points="65.1,471 76.6,386.9 74.5,386.6 62.9,471 				"/>
			</g>
		</g>
	</g>
	<g>
		<path class="st1" d="M507.9,330.7H156.6l0,0c0-2.2,2.9-4,6.4-4h338.4C505,326.7,507.9,328.5,507.9,330.7L507.9,330.7z"/>
		<g>
			<polygon class="st4" points="158.7,471 156.2,470.6 167.5,330.6 170,331 			"/>
		</g>
		<g>
			<polygon class="st4" points="506.7,471 509.1,470.6 497.9,330.6 495.4,331 			"/>
		</g>
	</g>
	<rect x="170" y="324.8" class="st11" width="23.1" height="1.9"/>
	<g>
		<path class="st11" d="M217.8,326.3h-16.4v-2.5h16.4c4.4,0,8.2-3.3,8.8-7.7l11.2-69l2.4,0.4l-11.2,69
			C228.3,322.1,223.5,326.3,217.8,326.3z"/>
	</g>
	<polygon class="st13" points="237.8,247.1 236.2,248.4 225.6,311.6 227.1,313.2 	"/>
</g>
<circle class="st0" cx="284.7" cy="313.2" r="1.8"/>
<g>
	<g>
		<path class="st10" d="M495.1,246.5c-4.9,16.3-4.2,74.4-4.2,74.4h-7.7c-1.3,0-2.5,0.3-3.7,0.9l-9.6,4.9h18.7c3.7,0,6.9-2.6,7.6-6.3
			l10.8-56.2C507.1,264.2,500,230.2,495.1,246.5z"/>
		<g>
			<polygon class="st10" points="489.6,244.5 493.5,255 504.4,250.1 494.7,235.7 			"/>
			<g>
				<path class="st9" d="M487.3,247.9c-1.3,0.6-2.5,1-3.3,0.8c-6.1-3.5-9-19.5-9-19.5l4.5-5.2l9.5,1l5,9.2c1.3,2.5,1.3,5.5-0.1,8.1
					l0,0C492.3,244.6,490,246.7,487.3,247.9z"/>
			</g>
			<path class="st7" d="M490.5,230.8c-1.2-1.4-2.8-5.1-4.2-4.1c-1.1,0.8-7,2.9-8.4,3.6c-3.2,1.6-7.8,3.2-10-1.8
				c-4.7-10.5,24.8-12.7,26.1-10c1.4,2.9,2,8,1.9,11.4c0,2-0.4,4-1.2,5.8l0,0L490.5,230.8z"/>
			<path class="st9" d="M493.9,229.5c-1-0.3-2.3,0.5-2.9,1.7c-0.6,1.2-0.2,2.5,0.9,2.8c1,0.3,2.3-0.5,2.9-1.7
				C495.3,231.1,495,229.8,493.9,229.5z"/>
		</g>
		<g>
			<path class="st7" d="M535.2,458.5c0,0,0,6.5-13.1,10.4c-2.7,0.8-1.8,1.6-2.3,2.7c4.3,0,15,0,15,0l5.9-6.6l1.8,1.6l4.2-4.2
				c0,0-2-6-5.2-6.1C538.9,457.2,535.2,458.5,535.2,458.5z"/>
			<path class="st9" d="M532.8,452.9l2.4,5.6l0,0c2.2,0.6,4.6-0.1,6.1-1.9l0.3-0.3l-2-5.8L532.8,452.9z"/>
		</g>
		<path class="st3" d="M503.6,244.7c29-3.2,55.7,51.1,55.7,51.1l-35.1,24.6c0,0-37.9-34.7-31.7-65.3
			C493.5,249.6,498,245.3,503.6,244.7z"/>
		<g>
			<path class="st7" d="M556.2,461.7c0,0-4.2,3.9-13.7,6.3c-2.1,0.5-4.4-0.2-4.4,3.3c4.4,0,11.6,0,11.6,0l9.6-1.7v1.7h5.2
				c0,0,1.4-8.5-1.6-9.6C560.1,461.7,556.2,461.7,556.2,461.7z"/>
			<path class="st9" d="M557.2,455.6l-1,6.1l0,0c1.9,1.3,4.4,1.4,6.4,0.2l0.4-0.2l-0.5-6.1H557.2z"/>
		</g>
		<path class="st7" d="M524.2,320.4c0,0-19.2,34.9-16.7,53.4c2.5,18.5,26.9,82.4,26.9,82.4l6.1-2.8c0,0-0.7-48.4-7-66.4
			c-1.5-4.2,0.7-11.7,2.6-15.7c8.7-18,19.7-47.6,19.7-47.6l-17.7-13L524.2,320.4z"/>
		<path class="st9" d="M495,264.1c0,0-15.7,15.9-25.8,23.3c-8.3,6.1-25.7,12.3-31.9,14.1c-1.4,0.4-2.9,0.2-4.2-0.4l-3.9-2
			c-1.2-0.6-2.6-0.9-3.9-0.7l-15.1,1.9c0,0,3.5,4.7,11.4,1.9c1.9,3.5,2,5.7,5.3,6.7c1.2,0.4,2.5,0.4,3.7,0.3
			c8.6-1.2,29.7-5.2,44.1-11.2c18.4-7.8,37.1-23.3,37.1-23.3L495,264.1z"/>
		<path class="st11" d="M532.4,314.6l23.7,144.1h7.1c0,0,8.2-57.7,3.1-84.5c4.8-39.4,5.7-65.6-7.1-78.4L532.4,314.6z"/>
	</g>
</g>
<linearGradient id="SVGID_3_" gradientUnits="userSpaceOnUse" x1="361.7715" y1="313.5143" x2="418.1548" y2="313.5143">
	<stop  offset="0" style="stop-color:#D6EDE5"/>
	<stop  offset="1" style="stop-color:#B2E1E9"/>
</linearGradient>
<polygon class="st14" points="405.5,300.3 361.8,300.3 374.7,326.7 418.2,326.7 "/>
<path class="st0" d="M386.1,313.5c0,0.8,0.7,1.5,1.5,1.5c0.8,0,1.5-0.7,1.5-1.5c0-0.8-0.7-1.5-1.5-1.5
	C386.8,312,386.1,312.7,386.1,313.5z"/>
<g>
	<g>
		<path class="st3" d="M124.7,202.4l-14.9-0.1c0,0,1.1-4.5,0.7-8c-0.2-1.3-1-2.5-2.1-3.2c-14.6-9.1-11-19.6-11-19.6
			s1.6-13.3,20.4-14.4c20-1.3,18.7,16.5,18.7,16.5s0.9,9.9-9.6,16.6c-1.5,1-2.4,2.6-2.7,4.3C123.7,198.9,124.7,202.4,124.7,202.4z"
			/>
		<path class="st1" d="M109.8,202.2l0,5.3c0,2,1.3,3.6,2.9,3.7l9.1,0c1.6,0,2.9-1.6,2.9-3.6l0-5.3L109.8,202.2z"/>
		<polygon class="st2" points="113.6,211.2 114.6,213.7 120.3,213.7 121.5,211.3 		"/>
		<g>
			<path class="st0" d="M115,181.1c0.2,0,0.4,0,0.6,0l-0.1,21.2l1,0l0.1-21.2c0.7-0.1,1.5-0.2,2.2-0.4c0,0.4,0,0.8,0,1.2
				c0,2.3-0.1,4.7-0.1,7c-0.1,4.5-0.1,9-0.2,13.5l1,0c0.1-7.3,0.2-14.6,0.3-21.9c1.3-0.4,2.5-1,3.3-1.8c3.5-3.3-2.4-6.9-4-2.3
				c-0.4,1-0.4,2.3-0.3,3.5c-0.7,0.2-1.5,0.4-2.3,0.5c0,0,0-2,0-3.2c0-0.7-0.2-1.4-0.7-1.9c-2.6-2.9-8.2-0.8-6,3.4
				C110.8,180.4,113.1,181.1,115,181.1z M120,178c0-0.5,0.7-4.6,3.3-2.3c0.3,0.2,0.4,0.6,0.4,0.9c-0.2,1.4-2.2,2.4-3.7,2.9
				C119.9,178.9,119.9,178.4,120,178z M111.2,174.8c1.7-0.8,3.1,0,3.8,0.7c0.4,0.4,0.7,1,0.7,1.6l0,3.3c-1.9,0.2-3.7-0.3-4.9-2
				C110,177.2,110.1,175.5,111.2,174.8z"/>
		</g>
	</g>
	<g>
		<path class="st8" d="M136.9,153.5c-0.3-0.3-0.3-0.8,0-1.1l7.6-7.5c0.3-0.3,0.8-0.3,1.1,0c0.3,0.3,0.3,0.8,0,1.1l-7.6,7.5
			C137.7,153.8,137.2,153.8,136.9,153.5z"/>
	</g>
	<g>
		<path class="st8" d="M103.7,153.4c0.3-0.3,0.3-0.8,0-1.1l-7.5-7.6c-0.3-0.3-0.8-0.3-1.1,0c-0.3,0.3-0.3,0.8,0,1.1l7.5,7.6
			C102.8,153.7,103.3,153.7,103.7,153.4z"/>
	</g>
	<g>
		<path class="st8" d="M117.9,150.7c-0.4,0-0.8-0.4-0.8-0.8l0.1-10.6c0-0.4,0.4-0.8,0.8-0.8c0.4,0,0.8,0.4,0.8,0.8l-0.1,10.6
			C118.7,150.3,118.3,150.7,117.9,150.7z"/>
	</g>
</g>
<g>
	<g>
		<g>
			<path class="st6" d="M480.2,205.6l10.3-0.1c0,0-0.8-3.1-0.5-5.6c0.1-0.9,0.7-1.7,1.4-2.2c10.1-6.3,7.7-13.6,7.7-13.6
				s-1.1-9.2-14.1-10c-13.9-0.9-13,11.5-13,11.5s-0.6,6.9,6.6,11.5c1,0.7,1.7,1.8,1.8,3C480.9,203.2,480.2,205.6,480.2,205.6z"/>
			<path class="st1" d="M490.6,205.5l0,3.7c0,1.4-0.9,2.5-2,2.5l-6.3,0c-1.1,0-2-1.1-2-2.5l0-3.7L490.6,205.5z"/>
			<linearGradient id="SVGID_4_" gradientUnits="userSpaceOnUse" x1="482.4492" y1="212.6012" x2="487.9333" y2="212.6012">
				<stop  offset="0" style="stop-color:#B2E1E9"/>
				<stop  offset="1" style="stop-color:#D6EDE5"/>
			</linearGradient>
			<polygon class="st15" points="487.9,211.7 487.2,213.4 483.3,213.5 482.4,211.8 			"/>
			<g>
				<path class="st8" d="M490.5,189.1c1.6-2.9-2.3-4.4-4.1-2.4c-0.3,0.4-0.5,0.9-0.5,1.3c0,0.9,0,2.2,0,2.2
					c-0.5-0.1-1.2-0.2-1.6-0.4c0-0.8,0-1.7-0.2-2.4c-1.1-3.2-5.2-0.7-2.8,1.6c0.6,0.5,1.4,0.9,2.3,1.2c0.1,5.1,0.1,10.1,0.2,15.2
					l0.7,0c0-3.1-0.1-6.2-0.1-9.4c0-1.6,0-3.2-0.1-4.9c0-0.3,0-0.5,0-0.8c0.5,0.1,1.1,0.2,1.6,0.3l0.1,14.7l0.7,0l-0.1-14.7
					c0.1,0,0.3,0,0.4,0C488.3,190.8,489.9,190.3,490.5,189.1z M483.6,189.7c-1-0.3-2.4-1-2.5-2c0-0.2,0.1-0.5,0.3-0.7
					c1.7-1.6,2.3,1.2,2.3,1.6C483.6,189,483.6,189.3,483.6,189.7z M489.9,188.9c-0.8,1.2-2.1,1.5-3.4,1.4l0-2.3
					c0-0.4,0.2-0.8,0.5-1.1c0.5-0.5,1.5-1.1,2.7-0.5C490.4,186.9,490.5,188.1,489.9,188.9z"/>
			</g>
		</g>
		<g>
			<path class="st8" d="M471.8,171.7c0.2-0.2,0.2-0.6,0-0.8l-5.2-5.2c-0.2-0.2-0.6-0.2-0.8,0c-0.2,0.2-0.2,0.6,0,0.8l5.2,5.2
				C471.2,171.9,471.6,171.9,471.8,171.7z"/>
		</g>
		<g>
			<path class="st8" d="M494.8,171.6c-0.2-0.2-0.2-0.6,0-0.8l5.2-5.2c0.2-0.2,0.6-0.2,0.8,0c0.2,0.2,0.2,0.6,0,0.8l-5.2,5.2
				C495.4,171.8,495.1,171.8,494.8,171.6z"/>
		</g>
		<g>
			<g>
				<path class="st8" d="M485,169.7c0.3,0,0.5-0.2,0.5-0.5l0-7.4c0-0.3-0.2-0.5-0.5-0.5c-0.3,0-0.5,0.2-0.5,0.6l0,7.4
					C484.4,169.5,484.7,169.7,485,169.7z"/>
			</g>
		</g>
	</g>
</g>
</svg>
